<svg width="100" height="100" viewBox="0 0 100 100" fill="none" xmlns="http://www.w3.org/2000/svg">
<path d="M100 50.1862C100 22.4662 77.6172 0 50 0C22.3828 0 0 22.4662 0 50.1862C0 73.711 16.1523 93.4719 37.9297 98.9022V65.5166H27.6172V50.1862H37.9297V43.5797C37.9297 26.5046 45.625 18.5846 62.3438 18.5846C65.5078 18.5846 70.9766 19.2119 73.2227 19.8392V33.7189C72.0508 33.6013 70 33.5228 67.4414 33.5228C59.2383 33.5228 56.0742 36.6399 56.0742 44.7363V50.1862H72.4023L69.5898 65.5166H56.0547V100C80.8203 97.0006 100 75.8479 100 50.1862Z" fill="#171738"/>
</svg>
