<svg width="100" height="100" viewBox="0 0 100 100" fill="none" xmlns="http://www.w3.org/2000/svg">
<g clip-path="url(#clip0_2205_2119)">
<path d="M32.207 4.8047C30.7031 1.17188 26.7383 -0.761709 22.9492 0.273447L5.76172 4.96095C2.36328 5.89845 0 8.98438 0 12.5C0 60.8203 39.1797 100 87.5 100C91.0156 100 94.1016 97.6367 95.0391 94.2383L99.7266 77.0508C100.762 73.2617 98.8281 69.2969 95.1953 67.793L76.4453 59.9805C73.2617 58.6524 69.5703 59.5703 67.4024 62.2461L59.5117 71.875C45.7617 65.3711 34.6289 54.2383 28.125 40.4883L37.7539 32.6172C40.4297 30.4297 41.3477 26.7578 40.0195 23.5742L32.207 4.82423V4.8047Z" fill="#171738"/>
</g>
<defs>
<clipPath id="clip0_2205_2119">
<rect width="100" height="100" fill="white"/>
</clipPath>
</defs>
</svg>
