<svg width="101" height="108" viewBox="0 0 101 108" fill="none" xmlns="http://www.w3.org/2000/svg">
<path d="M89.5658 10.4367C86.9254 7.98778 76.2393 0.180487 52.4139 0.0758314C52.4139 0.0758314 24.3265 -1.61959 10.6467 11.0228C3.03751 18.6836 0.35559 29.9235 0.0645287 43.8427C-0.226532 57.7619 -0.579964 83.842 24.3889 90.9167H24.4097L24.3889 101.717C24.3889 101.717 24.2226 106.092 27.0916 106.971C30.5428 108.059 32.5802 104.731 35.8858 101.152C37.6946 99.1844 40.1894 96.296 42.0813 94.0982C59.1707 95.5424 72.2892 92.2353 73.7861 91.7539C77.2373 90.6236 96.7591 88.1119 99.9192 62.0318C103.204 35.1144 98.3392 18.1184 89.5658 10.4367ZM92.4556 60.0643C89.7737 81.8326 73.9524 83.214 71.0418 84.1559C69.7944 84.5536 58.2559 87.4421 43.7653 86.5002C43.7653 86.5002 32.9544 99.624 29.5864 103.036C28.4846 104.145 27.2787 104.04 27.2995 101.843C27.2995 100.398 27.3827 83.9048 27.3827 83.9048C27.3619 83.9048 27.3619 83.9048 27.3827 83.9048C6.21839 78.0022 7.46579 55.7943 7.69448 44.1776C7.92318 32.5609 10.1061 23.0372 16.5511 16.6323C28.1311 6.06212 51.9773 7.63195 51.9773 7.63195C72.1229 7.71567 81.7695 13.8275 84.0148 15.8788C91.4369 22.2837 95.2207 37.6052 92.4556 60.0643ZM63.5574 43.152C63.6406 44.952 60.9586 45.0776 60.8755 43.2776C60.6468 38.6727 58.5054 36.4331 54.0979 36.1819C52.31 36.0773 52.4763 33.3772 54.2435 33.4818C60.0439 33.7958 63.2663 37.1448 63.5574 43.152ZM67.7778 45.5172C67.9857 36.6424 62.4763 29.6933 52.0189 28.9188C50.2518 28.7933 50.4389 26.0931 52.206 26.2187C64.2643 27.0978 70.6884 35.4493 70.4597 45.58C70.4389 47.38 67.7362 47.2963 67.7778 45.5172ZM77.5491 48.3219C77.5699 50.122 74.8672 50.1429 74.8672 48.3429C74.7425 31.2841 63.4535 21.9907 49.7528 21.886C47.9856 21.8651 47.9856 19.1859 49.7528 19.1859C65.0751 19.2906 77.4036 29.9445 77.5491 48.3219ZM75.1998 68.8553V68.8972C72.9545 72.8741 68.7549 77.2696 64.4306 75.8672L64.389 75.8044C60.0023 74.5695 49.6696 69.2112 43.1416 63.9784C39.7736 61.2992 36.6966 58.1386 34.3266 55.1036C32.1852 52.4035 30.023 49.201 27.9232 45.3497C23.4949 37.2913 22.5178 33.6911 22.5178 33.6911C21.1249 29.3375 25.47 25.1094 29.4409 22.8488H29.4825C31.3952 21.8441 33.2247 22.179 34.4513 23.6651C34.4513 23.6651 37.0293 26.7629 38.1311 28.2909C39.1707 29.7142 40.5636 31.9957 41.2912 33.2725C42.5594 35.554 41.7694 37.8773 40.522 38.8402L38.0272 40.8496C36.759 41.8752 36.9253 43.7799 36.9253 43.7799C36.9253 43.7799 40.626 57.8665 54.4514 61.4248C54.4514 61.4248 56.3433 61.5922 57.362 60.3154L59.3578 57.8037C60.3142 56.5479 62.6219 55.7525 64.888 57.0293C67.9441 58.7665 71.8318 61.4666 74.4098 63.9156C75.8651 65.1087 76.1978 66.9297 75.1998 68.8553Z" fill="#171738"/>
</svg>
